<svg width="25" height="24" viewBox="0 0 25 24" fill="none" xmlns="http://www.w3.org/2000/svg">
<path d="M12.6341 16.5V18.6" stroke="white" stroke-width="1.5" stroke-linecap="round" stroke-linejoin="round"/>
<path d="M17.6341 22V21C17.6341 19.9 16.7341 19 15.6341 19H9.63409C8.53409 19 7.63409 19.9 7.63409 21V22V22H17.6341Z" stroke="white" stroke-width="1.5"/>
<path d="M6.63409 22H18.6341" stroke="white" stroke-width="1.5" stroke-linecap="round" stroke-linejoin="round"/>
<path d="M5.48407 9V6C5.48407 3.79 7.27407 2 9.48407 2H15.4841C17.6941 2 19.4841 3.79 19.4841 6V9C19.4841 12.87 16.3541 16 12.4841 16C8.61407 16 5.48407 12.87 5.48407 9Z" stroke="white" stroke-width="1.5" stroke-linecap="round" stroke-linejoin="round"/>
<path d="M4.02405 10.4501C3.12405 9.4501 2.52405 8.2501 2.52405 6.8501C2.52405 5.4501 3.62405 4.3501 5.02405 4.3501H5.67405C5.47405 4.8101 5.37405 5.3201 5.37405 5.8501V8.8501C5.37405 9.8501 5.58405 10.7901 5.95405 11.6501C5.20405 11.4101 4.54405 10.9701 4.02405 10.4501Z" stroke="white" stroke-width="1.5" stroke-linecap="round" stroke-linejoin="round"/>
<path d="M20.9441 10.4501C21.8441 9.4501 22.4441 8.2501 22.4441 6.8501C22.4441 5.4501 21.3441 4.3501 19.9441 4.3501H19.2941C19.4941 4.8101 19.5941 5.3201 19.5941 5.8501V8.8501C19.5941 9.8501 19.3841 10.7901 19.0141 11.6501C19.7641 11.4101 20.4241 10.9701 20.9441 10.4501Z" stroke="white" stroke-width="1.5" stroke-linecap="round" stroke-linejoin="round"/>
</svg>
