<svg width="17" height="20" viewBox="0 0 17 20" fill="none" xmlns="http://www.w3.org/2000/svg">
<path fill-rule="evenodd" clip-rule="evenodd" d="M0.5 8C0.5 3.58172 4.08172 0 8.5 0C12.9183 0 16.5 3.58172 16.5 8C16.5 11.7564 14.6763 13.226 12.9762 14.596C11.8613 15.4945 10.7994 16.3502 10.34 17.78L9.83 19.32C9.68701 19.7454 9.27815 20.0234 8.83 20H8.27C7.82185 20.0234 7.41299 19.7454 7.27 19.32L6.76 17.78C6.28216 16.3544 5.20547 15.4996 4.07743 14.604C2.34899 13.2317 0.5 11.7637 0.5 8ZM5.5 8C5.5 9.65685 6.84315 11 8.5 11C9.29565 11 10.0587 10.6839 10.6213 10.1213C11.1839 9.55871 11.5 8.79565 11.5 8C11.5 6.34315 10.1569 5 8.5 5C6.84315 5 5.5 6.34315 5.5 8Z" fill="white"/>
</svg>
