<svg width="263" height="60" viewBox="0 0 263 60" fill="none" xmlns="http://www.w3.org/2000/svg">
<mask id="mask0_2_9517" style="mask-type:luminance" maskUnits="userSpaceOnUse" x="0" y="0" width="262" height="61">
<rect width="261.5" height="60.2" fill="white"/>
</mask>
<g mask="url(#mask0_2_9517)">
<path d="M83.0015 44.3511L86.539 47.0193L117.525 47.0915L118.18 44.4232L83.0015 44.3511Z" fill="white"/>
<path d="M87.3906 47.6682L90.9282 50.3365L116.608 50.4086L117.329 47.7403L87.3906 47.6682Z" fill="white"/>
<path d="M115.691 53.726L116.412 51.0577L91.7798 50.9856L95.3173 53.6539L115.691 53.726Z" fill="white"/>
<path d="M121.063 33.8222L122.177 29.7837L97.2172 33.75L121.063 33.8222Z" fill="white"/>
<path d="M96.169 54.303L100.427 57.5482H114.708L115.56 54.3751L96.169 54.303Z" fill="white"/>
<path d="M93.221 34.3992L76.7125 37.0674L120.146 37.1396L120.866 34.4713L93.221 34.3992Z" fill="white"/>
<path d="M78.6122 41.0337L82.1498 43.702L118.377 43.7741L119.098 41.1058L78.6122 41.0337Z" fill="white"/>
<path d="M74.2231 37.7163L77.7606 40.3846L119.294 40.4567L120.015 37.7884L74.2231 37.7163Z" fill="white"/>
<path fill-rule="evenodd" clip-rule="evenodd" d="M152.115 19.6875H145.498L143.86 25.3846C143.795 25.6731 143.664 26.0337 143.467 26.3942C143.271 26.7548 143.009 27.1154 142.681 27.4038H141.895L141.109 31.1538H143.271L143.795 29.351H148.708L148.446 31.1538H150.608L151.394 27.4038H150.477L152.115 19.6875ZM149.429 21.6346L148.184 27.4038V27.476H145.04C145.236 27.2596 145.367 27.0433 145.498 26.8269C145.826 26.25 146.088 25.6731 146.219 25.0962L147.136 21.6346H149.429Z" fill="white"/>
<path fill-rule="evenodd" clip-rule="evenodd" d="M154.277 19.6875H159.321C160.173 19.6875 160.697 19.9038 161.024 20.3365C161.352 20.7692 161.352 21.3462 161.221 22.2115C161.09 22.7885 160.893 23.2212 160.631 23.5817C160.369 23.9423 160.041 24.1587 159.648 24.3029C160.304 24.5192 160.631 25.024 160.697 25.8173C160.697 26.1058 160.697 26.4663 160.631 26.8269C160.435 27.7644 160.107 28.4135 159.648 28.8462C159.19 29.2788 158.535 29.4952 157.683 29.4952H152.311L154.277 19.6875ZM158.404 26.3221C158.535 25.7452 158.338 25.5288 157.814 25.5288H155.325L154.932 27.476H157.421C157.945 27.476 158.207 27.1875 158.338 26.6827L158.404 26.3221ZM158.273 21.6346C158.797 21.6346 158.993 21.851 158.862 22.4279L158.797 22.7885C158.666 23.2933 158.404 23.5817 157.88 23.5817H155.718L156.111 21.6346H158.273Z" fill="white"/>
<path fill-rule="evenodd" clip-rule="evenodd" d="M168.82 28.774C169.344 28.3413 169.671 27.6201 169.868 26.6826L170.785 22.2836C170.982 21.3461 170.982 20.6249 170.654 20.1923C170.327 19.7596 169.737 19.5432 168.885 19.5432H165.741C164.889 19.5432 164.169 19.7596 163.71 20.1923C163.186 20.6249 162.858 21.3461 162.662 22.2836L161.745 26.6826C161.548 27.6201 161.548 28.3413 161.876 28.774C162.203 29.2067 162.793 29.423 163.645 29.423H166.789C167.641 29.423 168.361 29.2067 168.82 28.774ZM167.968 21.4903C168.492 21.4903 168.689 21.7067 168.558 22.2836L167.641 26.6826C167.51 27.1874 167.248 27.4759 166.723 27.4759H164.562C164.038 27.4759 163.841 27.2596 163.972 26.6826L164.889 22.2836C165.02 21.7788 165.282 21.4903 165.806 21.4903H167.968Z" fill="white"/>
<path fill-rule="evenodd" clip-rule="evenodd" d="M178.057 19.6875H172.816L170.851 29.2788H173.078L173.668 26.5385H176.616C177.467 26.5385 178.188 26.3221 178.646 25.8894C179.17 25.4567 179.498 24.7356 179.695 23.7981L179.957 22.4279C180.153 21.4904 180.153 20.7692 179.826 20.3365C179.498 19.9038 178.908 19.6875 178.057 19.6875ZM177.205 21.6346C177.729 21.6346 177.926 21.851 177.795 22.4279L177.467 23.8702C177.336 24.375 177.074 24.6635 176.55 24.6635H174.061L174.716 21.6346H177.205Z" fill="white"/>
<path d="M186.966 29.351H180.022L182.053 19.6875H188.997L188.604 21.6346H183.887L183.494 23.5096H187.163L186.77 25.4567H183.101L182.708 27.476H187.425L186.966 29.351Z" fill="white"/>
<path d="M188.211 29.351L190.242 19.6875H192.469L190.831 27.4038H193.976L195.614 19.6875H197.841L196.269 27.4038H197.186L196.4 31.1538H194.238L194.5 29.351H188.211Z" fill="white"/>
<path fill-rule="evenodd" clip-rule="evenodd" d="M204.064 19.6875H209.109C209.96 19.6875 210.484 19.9038 210.812 20.3365C211.139 20.7692 211.139 21.3462 211.008 22.2115C210.877 22.7885 210.681 23.2212 210.419 23.5817C210.157 23.9423 209.829 24.1587 209.436 24.3029C210.091 24.5192 210.419 25.024 210.484 25.8173C210.484 26.1058 210.484 26.4663 210.419 26.8269C210.222 27.7644 209.895 28.4135 209.436 28.8462C208.978 29.2788 208.322 29.4952 207.471 29.4952H202.099L204.064 19.6875ZM208.191 26.3221C208.322 25.7452 208.126 25.5288 207.602 25.5288H205.112L204.719 27.476H207.209C207.733 27.476 207.995 27.1875 208.126 26.6827L208.191 26.3221ZM208.06 21.6346C208.585 21.6346 208.781 21.851 208.65 22.4279L208.585 22.7885C208.453 23.2933 208.191 23.5817 207.667 23.5817H205.506L205.899 21.6346H208.06Z" fill="white"/>
<path fill-rule="evenodd" clip-rule="evenodd" d="M218.608 28.774C219.132 28.3413 219.459 27.6201 219.656 26.6826L220.573 22.2836C220.769 21.3461 220.769 20.6249 220.442 20.1923C220.114 19.7596 219.525 19.5432 218.673 19.5432H215.529C214.677 19.5432 213.956 19.7596 213.498 20.1923C212.974 20.6249 212.646 21.3461 212.45 22.2836L211.533 26.6826C211.336 27.6201 211.336 28.3413 211.664 28.774C211.991 29.2067 212.581 29.423 213.432 29.423H216.577C217.428 29.423 218.084 29.2067 218.608 28.774ZM217.756 21.4903C218.28 21.4903 218.477 21.7067 218.346 22.2836L217.428 26.6826C217.297 27.1874 217.035 27.4759 216.511 27.4759H214.349C213.825 27.4759 213.629 27.2596 213.76 26.6826L214.677 22.2836C214.808 21.7788 215.07 21.4903 215.594 21.4903H217.756Z" fill="white"/>
<path fill-rule="evenodd" clip-rule="evenodd" d="M230.53 19.6875H223.914L222.342 25.3846C222.3 25.4759 222.259 25.5745 222.215 25.678C222.121 25.9014 222.017 26.1478 221.883 26.3942C221.687 26.7548 221.425 27.1154 221.097 27.4038H220.311L219.525 31.1538H221.687L222.211 29.351H227.124L226.862 31.1538H229.024L229.81 27.4038H228.893L230.53 19.6875ZM227.845 21.6346L226.6 27.4038V27.476H223.455C223.652 27.2596 223.783 27.0433 223.914 26.8269C224.241 26.25 224.503 25.6731 224.635 25.0962L225.552 21.6346H227.845Z" fill="white"/>
<path d="M238.326 29.351H236.099L236.95 25.3846H233.806L232.954 29.351H230.661L232.692 19.6875H234.92L234.134 23.5096H237.278L238.064 19.6875H240.291L238.326 29.351Z" fill="white"/>
<path fill-rule="evenodd" clip-rule="evenodd" d="M243.632 23.0047H246.515C247.367 23.0047 247.956 23.221 248.284 23.6537C248.611 24.0864 248.611 24.8075 248.415 25.745L248.218 26.5383C248.022 27.4758 247.694 28.197 247.17 28.6297C246.711 29.0624 245.991 29.2787 245.139 29.2787H239.964L241.995 19.6152H244.222L243.632 23.0047ZM246.187 25.745C246.318 25.1681 246.122 24.9518 245.598 24.9518H243.239L242.715 27.4037H245.074C245.598 27.4037 245.86 27.1152 245.991 26.6104L246.187 25.745ZM248.742 29.3508H250.97L253 19.6874H250.773L248.742 29.3508Z" fill="white"/>
<path d="M259.879 19.6875H262.368L258.503 24.5192L260.403 29.351H257.914L256.8 26.3221L254.376 29.351H251.887L255.817 24.5192L253.983 19.6875H256.472L257.521 22.7163L259.879 19.6875Z" fill="white"/>
<path fill-rule="evenodd" clip-rule="evenodd" d="M140.781 36.2739H145.826C146.677 36.2739 147.201 36.4903 147.529 36.923C147.857 37.3557 147.857 37.9326 147.726 38.798C147.595 39.3749 147.398 39.8076 147.136 40.1682C146.874 40.5287 146.546 40.7451 146.153 40.8893C146.808 41.1057 147.136 41.6105 147.201 42.4037C147.201 42.6922 147.201 43.0528 147.136 43.4133C146.939 44.3508 146.612 44.9999 146.153 45.4326C145.695 45.8653 145.04 46.0816 144.188 46.0816H138.816L140.781 36.2739ZM144.909 42.8364C145.04 42.2595 144.843 42.0432 144.319 42.0432H141.83L141.437 43.9903H143.926C144.45 43.9903 144.712 43.7018 144.843 43.197L144.909 42.8364ZM144.712 38.221C145.236 38.221 145.433 38.4374 145.302 39.0143L145.236 39.3749C145.105 39.8797 144.843 40.1682 144.319 40.1682H142.157L142.55 38.221H144.712Z" fill="white"/>
<path d="M155.521 45.9374H153.294L154.539 40.0239L150.28 45.9374H147.922L149.953 36.2739H152.18L150.936 42.1874L155.194 36.2739H157.552L155.521 45.9374Z" fill="white"/>
<path fill-rule="evenodd" clip-rule="evenodd" d="M167.182 36.2739H160.566L158.928 41.971C158.862 42.2595 158.731 42.6201 158.535 42.9807C158.338 43.3412 158.076 43.7018 157.749 43.9903H156.963L156.176 47.7403H158.338L158.862 45.9374H163.776L163.514 47.7403H165.675L166.462 43.9903H165.544L167.182 36.2739ZM164.562 38.221L163.317 43.9903V44.0624H160.173C160.369 43.846 160.5 43.6297 160.631 43.4134L160.631 43.4134C160.959 42.8364 161.221 42.2595 161.352 41.6826L162.269 38.221H164.562Z" fill="white"/>
<path fill-rule="evenodd" clip-rule="evenodd" d="M174.716 45.3604C175.24 44.9277 175.567 44.2066 175.764 43.2691L176.681 38.87C176.878 37.9325 176.878 37.2114 176.55 36.7787C176.222 36.346 175.633 36.1296 174.781 36.1296H171.637C170.785 36.1296 170.065 36.346 169.606 36.7787C169.082 37.2114 168.754 37.9325 168.558 38.87L167.641 43.2691C167.444 44.2066 167.444 44.9277 167.772 45.3604C168.099 45.7931 168.689 46.0094 169.54 46.0094H172.685C173.537 46.0094 174.257 45.7931 174.716 45.3604ZM173.864 38.0768C174.388 38.0768 174.585 38.2931 174.454 38.87L173.537 43.2691C173.406 43.7739 173.144 44.0623 172.619 44.0623H170.458C169.934 44.0623 169.737 43.846 169.868 43.2691L170.785 38.87C170.916 38.3652 171.178 38.0768 171.702 38.0768H173.864Z" fill="white"/>
<path fill-rule="evenodd" clip-rule="evenodd" d="M178.777 36.2739H183.822C184.673 36.2739 185.197 36.4903 185.525 36.923C185.852 37.3557 185.852 37.9326 185.721 38.798C185.59 39.3749 185.394 39.8076 185.132 40.1682C184.87 40.5287 184.542 40.7451 184.149 40.8893C184.804 41.1057 185.132 41.6105 185.197 42.4037C185.197 42.6922 185.197 43.0528 185.132 43.4133C184.935 44.3508 184.608 44.9999 184.149 45.4326C183.691 45.8653 183.036 46.0816 182.184 46.0816H176.812L178.777 36.2739ZM182.905 42.8364C183.036 42.2595 182.839 42.0432 182.315 42.0432H179.826L179.432 43.9903H181.922C182.446 43.9903 182.708 43.7018 182.839 43.197L182.905 42.8364ZM182.774 38.221C183.298 38.221 183.494 38.4374 183.363 39.0143L183.298 39.3749C183.167 39.8797 182.905 40.1682 182.38 40.1682H180.219L180.612 38.221H182.774Z" fill="white"/>
<path d="M196.727 45.7932C194.827 46.0095 193.255 46.0816 192.01 46.0816C191.159 46.0816 190.635 45.8653 190.307 45.4326C189.98 44.9999 189.98 44.3508 190.176 43.4133L191.093 39.0143C191.29 38.0768 191.617 37.3557 192.141 36.923C192.6 36.4903 193.321 36.2739 194.172 36.2739H198.693L198.299 38.221H194.303C193.779 38.221 193.517 38.5095 193.386 39.0143L192.469 43.4133C192.404 43.6297 192.469 43.7739 192.535 43.9182C192.6 44.0624 192.731 44.1345 192.928 44.1345C193.124 44.1345 193.321 44.1345 193.517 44.1345C193.714 44.1345 193.976 44.1345 194.172 44.1345C194.369 44.1345 194.631 44.1345 194.893 44.1345C195.155 44.1345 195.417 44.1345 195.81 44.0624C196.203 44.0624 196.662 43.9903 197.186 43.9903L196.727 45.7932Z" fill="white"/>
<path d="M205.571 45.9374H203.344L204.981 38.221H201.837L200.199 45.9374H197.972L200.003 36.2739H207.667L205.571 45.9374Z" fill="white"/>
<path fill-rule="evenodd" clip-rule="evenodd" d="M214.742 45.3604C215.267 44.9277 215.594 44.2066 215.791 43.2691L216.708 38.87C216.904 37.9325 216.904 37.2114 216.577 36.7787C216.249 36.346 215.66 36.1296 214.808 36.1296H211.664C210.812 36.1296 210.091 36.346 209.633 36.7787C209.109 37.2114 208.781 37.9325 208.585 38.87L207.667 43.2691C207.471 44.2066 207.471 44.9277 207.798 45.3604C208.126 45.7931 208.716 46.0094 209.567 46.0094H212.712C213.563 46.0094 214.284 45.7931 214.742 45.3604ZM213.891 38.0768C214.415 38.0768 214.611 38.2931 214.48 38.87L213.563 43.2691C213.432 43.7739 213.17 44.0623 212.646 44.0623H210.484C209.96 44.0623 209.764 43.846 209.895 43.2691L210.812 38.87C210.943 38.3652 211.205 38.0768 211.729 38.0768H213.891Z" fill="white"/>
<path fill-rule="evenodd" clip-rule="evenodd" d="M224.045 36.2739H218.804L216.773 45.8653H219.001L219.59 43.1249H222.604C223.455 43.1249 224.176 42.9085 224.635 42.4758C225.159 42.0432 225.486 41.322 225.683 40.3845L225.945 39.0143C226.141 38.0768 226.141 37.3557 225.814 36.923C225.486 36.4903 224.897 36.2739 224.045 36.2739ZM223.128 38.221C223.652 38.221 223.848 38.4374 223.717 39.0143L223.39 40.4566C223.259 40.9614 222.997 41.2499 222.473 41.2499H219.983L220.638 38.221H223.128Z" fill="white"/>
<path d="M230.203 45.9374H227.976L229.613 38.221H226.993L227.386 36.2739H234.92L234.527 38.221H231.906L230.203 45.9374Z" fill="white"/>
<path fill-rule="evenodd" clip-rule="evenodd" d="M233.085 45.9374H235.509L236.492 44.2066H239.636L239.833 45.9374H242.257L240.947 36.2739H238.457L233.085 45.9374ZM239.44 42.4037H237.409L239.112 39.1585L239.44 42.4037Z" fill="white"/>
<path d="M141.371 58.5577H137.244L138.423 52.8606H142.55L142.288 54.0144H139.537L139.275 55.0962H141.437L141.175 56.25H139.013L138.751 57.4039H141.502L141.371 58.5577Z" fill="white"/>
<path d="M144.057 56.8988H143.533L143.205 58.5575H141.895L142.812 54.2306H144.122L143.795 55.8171H144.385L144.974 54.9517C145.171 54.5911 145.498 54.3748 145.826 54.2306C145.957 54.1584 146.088 54.1584 146.153 54.1584C146.35 54.1584 146.481 54.1584 146.612 54.2306L146.808 54.3027L146.546 55.3844H146.284C146.088 55.3844 145.957 55.4565 145.891 55.6008L145.367 56.394L146.022 58.5575H144.647L144.057 56.8988Z" fill="white"/>
<path fill-rule="evenodd" clip-rule="evenodd" d="M149.887 54.1584C149.167 54.1584 148.315 54.1584 147.398 54.3027L147.07 55.3123C147.188 55.3123 147.319 55.2977 147.463 55.2817C147.64 55.262 147.837 55.2402 148.053 55.2402C148.446 55.1681 148.774 55.1681 149.101 55.1681C149.175 55.1681 149.207 55.1681 149.233 55.181C149.253 55.1909 149.269 55.2087 149.298 55.2402V55.4565L149.232 55.8171H147.726C147.398 55.8171 147.136 55.9613 146.874 56.1777C146.677 56.394 146.481 56.6825 146.415 57.0431L146.35 57.4036C146.284 57.7642 146.35 58.0527 146.481 58.269C146.612 58.4854 146.874 58.6296 147.201 58.6296H147.463C147.619 58.6296 147.775 58.5844 147.962 58.5299C148.012 58.5155 148.064 58.5004 148.119 58.4854C148.381 58.4133 148.643 58.269 148.905 58.1248V58.5575H150.084L150.739 55.3844C150.805 55.0238 150.739 54.7354 150.608 54.519C150.477 54.3027 150.215 54.1584 149.887 54.1584ZM148.97 57.3315C148.643 57.4036 148.315 57.4758 148.053 57.4758H147.922C147.848 57.4758 147.816 57.4758 147.79 57.4629C147.77 57.4529 147.754 57.4351 147.726 57.4036V57.1873V57.1152C147.726 57.0431 147.791 56.9709 147.857 56.8988C147.922 56.8267 147.988 56.8267 148.053 56.8267H149.101L148.97 57.3315Z" fill="white"/>
<path d="M153.621 55.3124L152.966 58.5576H151.656L152.311 55.3124H151.067L151.329 54.2307H155.063L154.801 55.3124H153.621Z" fill="white"/>
<path fill-rule="evenodd" clip-rule="evenodd" d="M155.587 58.6296C156.373 58.6296 157.225 58.6296 158.207 58.4854L158.404 57.4758C158.231 57.4893 158.063 57.5029 157.901 57.516C157.202 57.5725 156.614 57.62 156.242 57.62C156.111 57.62 156.045 57.62 156.045 57.5479V57.3315L156.111 56.9709H158.666L158.993 55.4565C159.059 55.0959 158.993 54.7354 158.862 54.519C158.731 54.3027 158.469 54.1584 158.076 54.1584H156.569C156.242 54.1584 155.914 54.3027 155.652 54.519C155.39 54.7354 155.194 55.0238 155.128 55.4565L154.735 57.4036C154.67 57.7642 154.735 58.0527 154.866 58.269C154.997 58.4854 155.259 58.6296 155.587 58.6296H155.587ZM156.438 55.5286C156.504 55.3123 156.635 55.1681 156.831 55.1681H157.487C157.683 55.1681 157.749 55.3123 157.683 55.5286L157.618 55.9613H156.373L156.438 55.5286Z" fill="white"/>
<path fill-rule="evenodd" clip-rule="evenodd" d="M160.041 59.9277L160.304 58.5575H161.876C162.203 58.5575 162.531 58.4133 162.793 58.1969C163.055 57.9806 163.251 57.6921 163.317 57.2594L163.71 55.3844C163.776 55.0238 163.71 54.7354 163.579 54.519C163.448 54.3027 163.186 54.1584 162.858 54.1584H162.531C162.375 54.1584 162.22 54.2036 162.032 54.2582C161.982 54.2726 161.93 54.2876 161.876 54.3027C161.614 54.3748 161.352 54.519 161.09 54.6633V54.2306H159.91L158.731 59.9277H160.041ZM160.959 55.4565C161.286 55.3844 161.614 55.3123 161.876 55.3123V55.2402H162.203C162.277 55.2402 162.309 55.2402 162.335 55.2531C162.355 55.2631 162.371 55.2808 162.4 55.3123V55.5286L162.072 57.0431C162.007 57.2594 161.876 57.4036 161.679 57.4036H160.566L160.959 55.4565Z" fill="white"/>
<path d="M167.182 54.2307H168.558L167.641 58.5576H166.33L166.855 56.1778L165.086 58.5576H163.71L164.627 54.2307H165.937L165.413 56.6105L167.182 54.2307Z" fill="white"/>
<path d="M171.571 55.8173L171.899 54.2307H173.209L172.292 58.5576H170.982L171.309 56.899H169.999L169.671 58.5576H168.361L169.278 54.2307H170.589L170.261 55.8173H171.571Z" fill="white"/>
<path fill-rule="evenodd" clip-rule="evenodd" d="M176.288 54.8076C175.895 54.8076 175.502 54.8076 174.978 54.9518L175.043 54.447C175.109 54.1586 175.24 54.0143 175.502 54.0143L177.86 53.7259L177.991 52.572L175.436 52.9326C175.043 53.0047 174.716 53.1489 174.388 53.4374C174.061 53.7259 173.864 54.0864 173.799 54.447L173.209 57.3316C173.143 57.6922 173.209 58.0528 173.34 58.2691C173.471 58.4855 173.733 58.6297 174.126 58.6297H175.764C176.091 58.6297 176.419 58.4855 176.681 58.2691C176.943 58.0528 177.14 57.7643 177.205 57.3316L177.467 56.0336C177.533 55.673 177.467 55.3845 177.336 55.1682C177.205 54.9518 176.943 54.8076 176.616 54.8076H176.288ZM175.96 57.1874C175.895 57.4038 175.764 57.548 175.567 57.548H174.716C174.519 57.548 174.454 57.4038 174.519 57.1874L174.781 55.9614C174.847 55.9614 174.912 55.9434 174.978 55.9254C175.043 55.9074 175.109 55.8893 175.174 55.8893H175.698H175.96C176.091 55.8893 176.157 55.8893 176.157 55.9614V56.1778L175.96 57.1874Z" fill="white"/>
<path d="M178.253 59.9999C177.991 59.9999 177.664 59.9999 177.336 59.9278L177.533 58.8461H178.188C178.384 58.8461 178.515 58.774 178.581 58.7019C178.646 58.5576 178.712 58.4134 178.646 58.1971L177.991 54.2307H179.367L179.695 56.9711L181.07 54.2307H182.446L180.022 58.7019C179.76 59.1346 179.564 59.423 179.236 59.7115C178.974 59.9278 178.646 59.9999 178.253 59.9999Z" fill="white"/>
<path fill-rule="evenodd" clip-rule="evenodd" d="M182.773 59.9277L183.036 58.5575H184.608C184.935 58.5575 185.263 58.4133 185.525 58.1969C185.787 57.9806 185.984 57.6921 186.049 57.2594L186.442 55.3844C186.508 55.0238 186.442 54.7354 186.311 54.519C186.18 54.3027 185.918 54.1584 185.59 54.1584H185.263C185.107 54.1584 184.952 54.2036 184.764 54.2582C184.714 54.2726 184.662 54.2876 184.608 54.3027C184.346 54.3748 184.084 54.519 183.822 54.6633V54.2306H182.642L181.463 59.9277H182.773ZM183.691 55.4565C184.018 55.3844 184.346 55.3123 184.608 55.3123V55.2402H184.935C185.066 55.2402 185.132 55.2402 185.132 55.3123V55.5286L184.804 57.0431C184.739 57.2594 184.608 57.4036 184.411 57.4036H183.298L183.691 55.4565Z" fill="white"/>
<path d="M190.504 54.2307L190.242 55.3124H188.342L187.687 58.5576H186.377L187.294 54.2307H190.504Z" fill="white"/>
<path d="M69.2443 33.8942L124.6 19.0384L128.334 4.54321L69.2443 33.8942Z" fill="white"/>
<path d="M24.2388 39.0144L94.6623 57.5481L15.1329 24.375L24.2388 39.0144Z" fill="white"/>
<path d="M26.6627 42.9087L35.8341 57.5481H94.6623L26.6627 42.9087Z" fill="white"/>
<path d="M94.6623 57.5481L0 0L10.2851 16.5144L94.6623 57.5481Z" fill="white"/>
</g>
</svg>
