<svg width="401" height="84" viewBox="0 0 401 84" fill="none" xmlns="http://www.w3.org/2000/svg">
<mask id="mask0_2_9529" style="mask-type:luminance" maskUnits="userSpaceOnUse" x="0" y="0" width="401" height="84">
<rect x="0.25" y="0.800049" width="400.5" height="83.2" fill="white"/>
</mask>
<g mask="url(#mask0_2_9529)">
<path d="M126.95 62.3L132.35 66L179.65 66.1L180.65 62.4L126.95 62.3Z" fill="white"/>
<path d="M133.65 66.9001L139.05 70.6001L178.25 70.7001L179.35 67.0001L133.65 66.9001Z" fill="white"/>
<path d="M176.85 75.3L177.95 71.6L140.35 71.5L145.75 75.2L176.85 75.3Z" fill="white"/>
<path d="M185.05 47.7001L186.75 42.1001L148.65 47.6001L185.05 47.7001Z" fill="white"/>
<path d="M147.05 76.1001L153.55 80.6001H175.35L176.65 76.2001L147.05 76.1001Z" fill="white"/>
<path d="M142.55 48.5L117.35 52.2L183.65 52.3L184.75 48.6L142.55 48.5Z" fill="white"/>
<path d="M120.25 57.7002L125.65 61.4002L180.95 61.5002L182.05 57.8002L120.25 57.7002Z" fill="white"/>
<path d="M113.55 53.1001L118.95 56.8001L182.35 56.9001L183.45 53.2001L113.55 53.1001Z" fill="white"/>
<path fill-rule="evenodd" clip-rule="evenodd" d="M232.45 28.1001H222.35L219.85 36.0001C219.75 36.4001 219.55 36.9001 219.25 37.4001C218.95 37.9001 218.55 38.4001 218.05 38.8001H216.85L215.65 44.0001H218.95L219.75 41.5001H227.25L226.85 44.0001H230.15L231.35 38.8001H229.95L232.45 28.1001ZM228.35 30.8001L226.45 38.8001V38.9001H221.65C221.95 38.6001 222.15 38.3001 222.35 38.0001C222.85 37.2001 223.25 36.4001 223.45 35.6001L224.85 30.8001H228.35Z" fill="white"/>
<path fill-rule="evenodd" clip-rule="evenodd" d="M235.75 28.1001H243.45C244.75 28.1001 245.55 28.4001 246.05 29.0001C246.55 29.6001 246.55 30.4001 246.35 31.6001C246.15 32.4001 245.85 33.0001 245.45 33.5001C245.05 34.0001 244.55 34.3001 243.95 34.5001C244.95 34.8001 245.45 35.5001 245.55 36.6001C245.55 37.0001 245.55 37.5001 245.45 38.0001C245.15 39.3001 244.65 40.2001 243.95 40.8001C243.25 41.4001 242.25 41.7001 240.95 41.7001H232.75L235.75 28.1001ZM242.05 37.3001C242.25 36.5001 241.95 36.2001 241.15 36.2001H237.35L236.75 38.9001H240.55C241.35 38.9001 241.75 38.5001 241.95 37.8001L242.05 37.3001ZM241.85 30.8001C242.65 30.8001 242.95 31.1001 242.75 31.9001L242.65 32.4001C242.45 33.1001 242.05 33.5001 241.25 33.5001H237.95L238.55 30.8001H241.85Z" fill="white"/>
<path fill-rule="evenodd" clip-rule="evenodd" d="M257.95 40.7001C258.75 40.1001 259.25 39.1001 259.55 37.8001L260.95 31.7001C261.25 30.4001 261.25 29.4001 260.75 28.8001C260.25 28.2001 259.35 27.9001 258.05 27.9001H253.25C251.95 27.9001 250.85 28.2001 250.15 28.8001C249.35 29.4001 248.85 30.4001 248.55 31.7001L247.15 37.8001C246.85 39.1001 246.85 40.1001 247.35 40.7001C247.85 41.3001 248.75 41.6001 250.05 41.6001H254.85C256.15 41.6001 257.25 41.3001 257.95 40.7001ZM256.65 30.6001C257.45 30.6001 257.75 30.9001 257.55 31.7001L256.15 37.8001C255.95 38.5001 255.55 38.9001 254.75 38.9001H251.45C250.65 38.9001 250.35 38.6001 250.55 37.8001L251.95 31.7001C252.15 31.0001 252.55 30.6001 253.35 30.6001H256.65Z" fill="white"/>
<path fill-rule="evenodd" clip-rule="evenodd" d="M272.05 28.1001H264.05L261.05 41.4001H264.45L265.35 37.6001H269.85C271.15 37.6001 272.25 37.3001 272.95 36.7001C273.75 36.1001 274.25 35.1001 274.55 33.8001L274.95 31.9001C275.25 30.6001 275.25 29.6001 274.75 29.0001C274.25 28.4001 273.35 28.1001 272.05 28.1001ZM270.75 30.8001C271.55 30.8001 271.85 31.1001 271.65 31.9001L271.15 33.9001C270.95 34.6001 270.55 35.0001 269.75 35.0001H265.95L266.95 30.8001H270.75Z" fill="white"/>
<path d="M285.65 41.5001H275.05L278.15 28.1001H288.75L288.15 30.8001H280.95L280.35 33.4001H285.95L285.35 36.1001H279.75L279.15 38.9001H286.35L285.65 41.5001Z" fill="white"/>
<path d="M287.55 41.5001L290.65 28.1001H294.05L291.55 38.8001H296.35L298.85 28.1001H302.25L299.85 38.8001H301.25L300.05 44.0001H296.75L297.15 41.5001H287.55Z" fill="white"/>
<path fill-rule="evenodd" clip-rule="evenodd" d="M311.75 28.1001H319.45C320.75 28.1001 321.55 28.4001 322.05 29.0001C322.55 29.6001 322.55 30.4001 322.35 31.6001C322.15 32.4001 321.85 33.0001 321.45 33.5001C321.05 34.0001 320.55 34.3001 319.95 34.5001C320.95 34.8001 321.45 35.5001 321.55 36.6001C321.55 37.0001 321.55 37.5001 321.45 38.0001C321.15 39.3001 320.65 40.2001 319.95 40.8001C319.25 41.4001 318.25 41.7001 316.95 41.7001H308.75L311.75 28.1001ZM318.05 37.3001C318.25 36.5001 317.95 36.2001 317.15 36.2001H313.35L312.75 38.9001H316.55C317.35 38.9001 317.75 38.5001 317.95 37.8001L318.05 37.3001ZM317.85 30.8001C318.65 30.8001 318.95 31.1001 318.75 31.9001L318.65 32.4001C318.45 33.1001 318.05 33.5001 317.25 33.5001H313.95L314.55 30.8001H317.85Z" fill="white"/>
<path fill-rule="evenodd" clip-rule="evenodd" d="M333.95 40.7001C334.75 40.1001 335.25 39.1001 335.55 37.8001L336.95 31.7001C337.25 30.4001 337.25 29.4001 336.75 28.8001C336.25 28.2001 335.35 27.9001 334.05 27.9001H329.25C327.95 27.9001 326.85 28.2001 326.15 28.8001C325.35 29.4001 324.85 30.4001 324.55 31.7001L323.15 37.8001C322.85 39.1001 322.85 40.1001 323.35 40.7001C323.85 41.3001 324.75 41.6001 326.05 41.6001H330.85C332.15 41.6001 333.15 41.3001 333.95 40.7001ZM332.65 30.6001C333.45 30.6001 333.75 30.9001 333.55 31.7001L332.15 37.8001C331.95 38.5001 331.55 38.9001 330.75 38.9001H327.45C326.65 38.9001 326.35 38.6001 326.55 37.8001L327.95 31.7001C328.15 31.0001 328.55 30.6001 329.35 30.6001H332.65Z" fill="white"/>
<path fill-rule="evenodd" clip-rule="evenodd" d="M352.15 28.1001H342.05L339.65 36.0001C339.587 36.1267 339.523 36.2634 339.457 36.4069C339.313 36.7167 339.155 37.0584 338.95 37.4001C338.65 37.9001 338.25 38.4001 337.75 38.8001H336.55L335.35 44.0001H338.65L339.45 41.5001H346.95L346.55 44.0001H349.85L351.05 38.8001H349.65L352.15 28.1001ZM348.05 30.8001L346.15 38.8001V38.9001H341.35C341.65 38.6001 341.85 38.3001 342.05 38.0001C342.55 37.2001 342.95 36.4001 343.15 35.6001L344.55 30.8001H348.05Z" fill="white"/>
<path d="M364.05 41.5001H360.65L361.95 36.0001H357.15L355.85 41.5001H352.35L355.45 28.1001H358.85L357.65 33.4001H362.45L363.65 28.1001H367.05L364.05 41.5001Z" fill="white"/>
<path fill-rule="evenodd" clip-rule="evenodd" d="M372.15 32.7002H376.55C377.85 32.7002 378.75 33.0002 379.25 33.6002C379.75 34.2002 379.75 35.2002 379.45 36.5002L379.15 37.6002C378.85 38.9002 378.35 39.9002 377.55 40.5002C376.85 41.1002 375.75 41.4002 374.45 41.4002H366.55L369.65 28.0002H373.05L372.15 32.7002ZM376.05 36.5002C376.25 35.7002 375.95 35.4002 375.15 35.4002H371.55L370.75 38.8002H374.35C375.15 38.8002 375.55 38.4002 375.75 37.7002L376.05 36.5002ZM379.95 41.5002H383.35L386.45 28.1002H383.05L379.95 41.5002Z" fill="white"/>
<path d="M396.95 28.1001H400.75L394.85 34.8001L397.75 41.5001H393.95L392.25 37.3001L388.55 41.5001H384.75L390.75 34.8001L387.95 28.1001H391.75L393.35 32.3001L396.95 28.1001Z" fill="white"/>
<path fill-rule="evenodd" clip-rule="evenodd" d="M215.15 51.1001H222.85C224.15 51.1001 224.95 51.4001 225.45 52.0001C225.95 52.6001 225.95 53.4001 225.75 54.6001C225.55 55.4001 225.25 56.0001 224.85 56.5001C224.45 57.0001 223.95 57.3001 223.35 57.5001C224.35 57.8001 224.85 58.5001 224.95 59.6001C224.95 60.0001 224.95 60.5001 224.85 61.0001C224.55 62.3001 224.05 63.2001 223.35 63.8001C222.65 64.4001 221.65 64.7001 220.35 64.7001H212.15L215.15 51.1001ZM221.45 60.2001C221.65 59.4001 221.35 59.1001 220.55 59.1001H216.75L216.15 61.8001H219.95C220.75 61.8001 221.15 61.4001 221.35 60.7001L221.45 60.2001ZM221.15 53.8001C221.95 53.8001 222.25 54.1001 222.05 54.9001L221.95 55.4001C221.75 56.1001 221.35 56.5001 220.55 56.5001H217.25L217.85 53.8001H221.15Z" fill="white"/>
<path d="M237.65 64.5001H234.25L236.15 56.3001L229.65 64.5001H226.05L229.15 51.1001H232.55L230.65 59.3001L237.15 51.1001H240.75L237.65 64.5001Z" fill="white"/>
<path fill-rule="evenodd" clip-rule="evenodd" d="M255.45 51.1001H245.35L242.85 59.0001C242.75 59.4001 242.55 59.9001 242.25 60.4001C241.95 60.9001 241.55 61.4001 241.05 61.8001H239.85L238.65 67.0001H241.95L242.75 64.5001H250.25L249.85 67.0001H253.15L254.35 61.8001H252.95L255.45 51.1001ZM251.45 53.8001L249.55 61.8001V61.9001H244.75C245.05 61.6001 245.25 61.3001 245.45 61.0001C245.95 60.2001 246.35 59.4001 246.55 58.6001L247.95 53.8001H251.45Z" fill="white"/>
<path fill-rule="evenodd" clip-rule="evenodd" d="M266.95 63.7001C267.75 63.1001 268.25 62.1001 268.55 60.8001L269.95 54.7001C270.25 53.4001 270.25 52.4001 269.75 51.8001C269.25 51.2001 268.35 50.9001 267.05 50.9001H262.25C260.95 50.9001 259.85 51.2001 259.15 51.8001C258.35 52.4001 257.85 53.4001 257.55 54.7001L256.15 60.8001C255.85 62.1001 255.85 63.1001 256.35 63.7001C256.85 64.3001 257.75 64.6001 259.05 64.6001H263.85C265.15 64.6001 266.25 64.3001 266.95 63.7001ZM265.65 53.6001C266.45 53.6001 266.75 53.9001 266.55 54.7001L265.15 60.8001C264.95 61.5001 264.55 61.9001 263.75 61.9001H260.45C259.65 61.9001 259.35 61.6001 259.55 60.8001L260.95 54.7001C261.15 54.0001 261.55 53.6001 262.35 53.6001H265.65Z" fill="white"/>
<path fill-rule="evenodd" clip-rule="evenodd" d="M273.15 51.1001H280.85C282.15 51.1001 282.95 51.4001 283.45 52.0001C283.95 52.6001 283.95 53.4001 283.75 54.6001C283.55 55.4001 283.25 56.0001 282.85 56.5001C282.45 57.0001 281.95 57.3001 281.35 57.5001C282.35 57.8001 282.85 58.5001 282.95 59.6001C282.95 60.0001 282.95 60.5001 282.85 61.0001C282.55 62.3001 282.05 63.2001 281.35 63.8001C280.65 64.4001 279.65 64.7001 278.35 64.7001H270.15L273.15 51.1001ZM279.45 60.2001C279.65 59.4001 279.35 59.1001 278.55 59.1001H274.75L274.15 61.8001H277.95C278.75 61.8001 279.15 61.4001 279.35 60.7001L279.45 60.2001ZM279.25 53.8001C280.05 53.8001 280.35 54.1001 280.15 54.9001L280.05 55.4001C279.85 56.1001 279.45 56.5001 278.65 56.5001H275.35L275.95 53.8001H279.25Z" fill="white"/>
<path d="M300.55 64.3001C297.65 64.6001 295.25 64.7001 293.35 64.7001C292.05 64.7001 291.25 64.4001 290.75 63.8001C290.25 63.2001 290.25 62.3001 290.55 61.0001L291.95 54.9001C292.25 53.6001 292.75 52.6001 293.55 52.0001C294.25 51.4001 295.35 51.1001 296.65 51.1001H303.55L302.95 53.8001H296.85C296.05 53.8001 295.65 54.2001 295.45 54.9001L294.05 61.0001C293.95 61.3001 294.05 61.5001 294.15 61.7001C294.25 61.9001 294.45 62.0001 294.75 62.0001C295.05 62.0001 295.35 62.0001 295.65 62.0001C295.95 62.0001 296.35 62.0001 296.65 62.0001C296.95 62.0001 297.35 62.0001 297.75 62.0001C298.15 62.0001 298.55 62.0001 299.15 61.9001C299.75 61.9001 300.45 61.8001 301.25 61.8001L300.55 64.3001Z" fill="white"/>
<path d="M314.05 64.5001H310.65L313.15 53.8001H308.35L305.85 64.5001H302.45L305.55 51.1001H317.25L314.05 64.5001Z" fill="white"/>
<path fill-rule="evenodd" clip-rule="evenodd" d="M328.05 63.7001C328.85 63.1001 329.35 62.1001 329.65 60.8001L331.05 54.7001C331.35 53.4001 331.35 52.4001 330.85 51.8001C330.35 51.2001 329.45 50.9001 328.15 50.9001H323.35C322.05 50.9001 320.95 51.2001 320.25 51.8001C319.45 52.4001 318.95 53.4001 318.65 54.7001L317.25 60.8001C316.95 62.1001 316.95 63.1001 317.45 63.7001C317.95 64.3001 318.85 64.6001 320.15 64.6001H324.95C326.25 64.6001 327.35 64.3001 328.05 63.7001ZM326.75 53.6001C327.55 53.6001 327.85 53.9001 327.65 54.7001L326.25 60.8001C326.05 61.5001 325.65 61.9001 324.85 61.9001H321.55C320.75 61.9001 320.45 61.6001 320.65 60.8001L322.05 54.7001C322.25 54.0001 322.65 53.6001 323.45 53.6001H326.75Z" fill="white"/>
<path fill-rule="evenodd" clip-rule="evenodd" d="M342.25 51.1001H334.25L331.15 64.4001H334.55L335.45 60.6001H340.05C341.35 60.6001 342.45 60.3001 343.15 59.7001C343.95 59.1001 344.45 58.1001 344.75 56.8001L345.15 54.9001C345.45 53.6001 345.45 52.6001 344.95 52.0001C344.45 51.4001 343.55 51.1001 342.25 51.1001ZM340.85 53.8001C341.65 53.8001 341.95 54.1001 341.75 54.9001L341.25 56.9001C341.05 57.6001 340.65 58.0001 339.85 58.0001H336.05L337.05 53.8001H340.85Z" fill="white"/>
<path d="M351.65 64.5001H348.25L350.75 53.8001H346.75L347.35 51.1001H358.85L358.25 53.8001H354.25L351.65 64.5001Z" fill="white"/>
<path fill-rule="evenodd" clip-rule="evenodd" d="M356.05 64.5001H359.75L361.25 62.1001H366.05L366.35 64.5001H370.05L368.05 51.1001H364.25L356.05 64.5001ZM365.75 59.6001H362.65L365.25 55.1001L365.75 59.6001Z" fill="white"/>
<path d="M216.05 81.9999H209.75L211.55 74.0999H217.85L217.45 75.6999H213.25L212.85 77.1999H216.15L215.75 78.7999H212.45L212.05 80.3999H216.25L216.05 81.9999Z" fill="white"/>
<path d="M220.15 79.6999H219.35L218.85 81.9999H216.85L218.25 75.9999H220.25L219.75 78.1999H220.65L221.55 76.9999C221.85 76.4999 222.35 76.1999 222.85 75.9999C223.05 75.8999 223.25 75.8999 223.35 75.8999C223.65 75.8999 223.85 75.8999 224.05 75.9999L224.35 76.0999L223.95 77.5999H223.55C223.25 77.5999 223.05 77.6999 222.95 77.8999L222.15 78.9999L223.15 81.9999H221.05L220.15 79.6999Z" fill="white"/>
<path fill-rule="evenodd" clip-rule="evenodd" d="M229.05 75.8999C227.95 75.8999 226.65 75.8999 225.25 76.0999L224.75 77.4999C224.93 77.4999 225.13 77.4797 225.35 77.4575C225.62 77.4302 225.92 77.3999 226.25 77.3999C226.85 77.2999 227.35 77.2999 227.85 77.2999C227.965 77.2999 228.014 77.2999 228.054 77.3189C228.083 77.333 228.108 77.3574 228.15 77.3999V77.6999L228.05 78.1999H225.75C225.25 78.1999 224.85 78.3999 224.45 78.6999C224.15 78.9999 223.85 79.3999 223.75 79.8999L223.65 80.3999C223.55 80.8999 223.65 81.2999 223.85 81.5999C224.05 81.8999 224.45 82.0999 224.95 82.0999H225.35C225.587 82.0999 225.825 82.0373 226.112 81.9616C226.187 81.9416 226.267 81.9208 226.35 81.8999C226.75 81.7999 227.15 81.5999 227.55 81.3999L227.55 81.3999V81.9999H229.35L230.35 77.5999C230.45 77.0999 230.35 76.6999 230.15 76.3999C229.95 76.0999 229.55 75.8999 229.05 75.8999ZM227.65 80.2999C227.15 80.3999 226.65 80.4999 226.25 80.4999H226.05C225.935 80.4999 225.886 80.4999 225.846 80.4809C225.817 80.4668 225.793 80.4424 225.75 80.3999V80.0999V79.9999C225.75 79.8999 225.85 79.7999 225.95 79.6999C226.05 79.5999 226.15 79.5999 226.25 79.5999H227.85L227.65 80.2999Z" fill="white"/>
<path d="M234.75 77.5L233.75 82H231.75L232.75 77.5H230.85L231.25 76H236.95L236.55 77.5H234.75Z" fill="white"/>
<path fill-rule="evenodd" clip-rule="evenodd" d="M237.75 82.0999C238.95 82.0999 240.25 82.0999 241.75 81.8999L242.05 80.4999C241.786 80.5187 241.53 80.5376 241.283 80.5557C240.216 80.634 239.318 80.6999 238.75 80.6999C238.55 80.6999 238.45 80.6999 238.45 80.5999V80.2999L238.55 79.7999H242.45L242.95 77.6999C243.05 77.1999 242.95 76.6999 242.75 76.3999C242.55 76.0999 242.15 75.8999 241.55 75.8999H239.25C238.75 75.8999 238.25 76.0999 237.85 76.3999C237.45 76.6999 237.15 77.0999 237.05 77.6999L236.45 80.3999C236.35 80.8999 236.45 81.2999 236.65 81.5999C236.85 81.8999 237.25 82.0999 237.75 82.0999ZM239.05 77.7999C239.15 77.4999 239.35 77.2999 239.65 77.2999H240.65C240.95 77.2999 241.05 77.4999 240.95 77.7999L240.85 78.3999H238.95L239.05 77.7999Z" fill="white"/>
<path fill-rule="evenodd" clip-rule="evenodd" d="M244.55 83.8999L244.95 81.9999H247.35C247.85 81.9999 248.35 81.7999 248.75 81.4999C249.15 81.1999 249.45 80.7999 249.55 80.1999L250.15 77.5999C250.25 77.0999 250.15 76.6999 249.95 76.3999C249.75 76.0999 249.35 75.8999 248.85 75.8999H248.35C248.113 75.8999 247.875 75.9625 247.588 76.0382C247.513 76.0582 247.433 76.079 247.35 76.0999C246.95 76.1999 246.55 76.3999 246.15 76.5999V75.9999H244.35L242.55 83.8999H244.55ZM245.95 77.6999C246.45 77.5999 246.95 77.4999 247.35 77.4999V77.3999H247.85C247.965 77.3999 248.014 77.3999 248.054 77.4189C248.083 77.433 248.107 77.4574 248.15 77.4999V77.7999L247.65 79.8999C247.55 80.1999 247.35 80.3999 247.05 80.3999H245.35L245.95 77.6999L245.95 77.6999Z" fill="white"/>
<path d="M255.45 76H257.55L256.15 82H254.15L254.95 78.7L252.25 82H250.15L251.55 76H253.55L252.75 79.3L255.45 76Z" fill="white"/>
<path d="M262.15 78.2L262.65 76H264.65L263.25 82H261.25L261.75 79.7H259.75L259.25 82H257.25L258.65 76H260.65L260.15 78.2H262.15Z" fill="white"/>
<path fill-rule="evenodd" clip-rule="evenodd" d="M269.35 76.8C268.75 76.8 268.15 76.8 267.35 77L267.45 76.3C267.55 75.9 267.75 75.7 268.15 75.7L271.75 75.3L271.95 73.7L268.05 74.2C267.45 74.3 266.95 74.5 266.45 74.9C265.95 75.3 265.65 75.8 265.55 76.3L264.65 80.3C264.55 80.8 264.65 81.3 264.85 81.6C265.05 81.9 265.45 82.1 266.05 82.1H268.55C269.05 82.1 269.55 81.9 269.95 81.6C270.35 81.3 270.65 80.9 270.75 80.3L271.15 78.5C271.25 78 271.15 77.6 270.95 77.3C270.75 77 270.35 76.8 269.85 76.8H269.35ZM268.85 80.1C268.75 80.4 268.55 80.6 268.25 80.6H266.95C266.65 80.6 266.55 80.4 266.65 80.1L267.05 78.4C267.15 78.4 267.25 78.375 267.35 78.35C267.45 78.325 267.55 78.3 267.65 78.3H268.45H268.85C269.05 78.3 269.15 78.3 269.15 78.4V78.7L268.85 80.1Z" fill="white"/>
<path d="M272.35 84C271.95 84 271.45 84 270.95 83.9L271.25 82.4H272.25C272.55 82.4 272.75 82.3 272.85 82.2C272.95 82 273.05 81.8 272.95 81.5L271.95 76H274.05L274.55 79.8L276.65 76H278.75L275.05 82.2C274.65 82.8 274.35 83.2 273.85 83.6C273.45 83.9 272.95 84 272.35 84Z" fill="white"/>
<path fill-rule="evenodd" clip-rule="evenodd" d="M279.25 83.8999L279.65 81.9999H282.05C282.55 81.9999 283.05 81.7999 283.45 81.4999C283.85 81.1999 284.15 80.7999 284.25 80.1999L284.85 77.5999C284.95 77.0999 284.85 76.6999 284.65 76.3999C284.45 76.0999 284.05 75.8999 283.55 75.8999H283.05C282.813 75.8999 282.575 75.9625 282.288 76.0382C282.213 76.0582 282.133 76.079 282.05 76.0999C281.65 76.1999 281.25 76.3999 280.85 76.5999V75.9999H279.05L277.25 83.8999H279.25ZM280.65 77.6999C281.15 77.5999 281.65 77.4999 282.05 77.4999V77.3999H282.55C282.75 77.3999 282.85 77.3999 282.85 77.4999V77.7999L282.35 79.8999C282.25 80.1999 282.05 80.3999 281.75 80.3999H280.05L280.65 77.6999L280.65 77.6999Z" fill="white"/>
<path d="M291.05 76L290.65 77.5H287.75L286.75 82H284.75L286.15 76H291.05Z" fill="white"/>
<path d="M105.95 47.8001L190.45 27.2001L196.15 7.1001L105.95 47.8001Z" fill="white"/>
<path d="M37.25 54.9001L144.75 80.6001L23.35 34.6001L37.25 54.9001Z" fill="white"/>
<path d="M40.95 60.3L54.95 80.6H144.75L40.95 60.3Z" fill="white"/>
<path d="M144.75 80.6001L0.25 0.800049L15.95 23.7L144.75 80.6001Z" fill="white"/>
</g>
</svg>
